<svg width="255" height="255" viewBox="0 0 255 255" fill="none" xmlns="http://www.w3.org/2000/svg">
<path d="M179.777 148.294L179.594 148.438C166.316 158.559 152.945 164.71 136.212 168.368C110.579 173.971 86.7071 170.634 73.9117 159.659C68.1533 154.731 64.9335 148.556 64.3257 141.31C62.7748 122.67 76.749 103.395 101.714 89.7486L101.962 89.6097L101.674 88.9023L101.431 89.0045C72.1014 100.804 51.5147 122.814 53.084 143.749C53.7206 152.295 57.5508 159.866 64.1502 165.609C77.7629 177.464 101.881 181.15 128.659 175.439C150.233 170.849 167.404 161.213 180.089 149.122L180.33 148.876L179.777 148.294Z" fill="#E2E8F0"/>
<path d="M199.249 97.6954C194.15 86.3409 182.969 78.6098 167.755 75.9637C143.179 71.6515 113.674 82.2278 98.8797 99.359L98.6885 99.579L99.1496 100.213L99.3827 100.024C109.205 91.8426 123.747 85.6257 138.274 83.3989C159.862 80.1031 177.97 85.5235 186.705 97.9049C195.198 109.925 192.78 133.124 181.641 146.566L181.436 146.823L181.992 147.472L182.222 147.273C199.191 131.122 207.357 115.827 199.249 97.6954Z" fill="#E2E8F0"/>
<path d="M108.63 130.404H92.3584L90.6136 139.746H108.808L107.362 147.407H80.0635L87.7213 106.786H113.87L112.366 114.441H95.3739L93.8072 122.757H110.079L108.63 130.404Z" fill="#E2E8F0"/>
<path d="M125.17 114.499H115.201L116.708 106.789H151.253C149.183 107.216 147.357 108.479 145.628 110.205C143.658 112.173 143.294 114.502 143.294 114.502H134.208L128.059 147.412H119.021L125.17 114.499Z" fill="#E2E8F0"/>
<path d="M143.599 137.468C146.373 139.095 150.229 140.415 154.505 140.415C157.819 140.415 161.136 139.029 161.136 135.836C161.136 133.666 159.265 132.218 155.168 130.407C150.465 128.367 145.59 125.168 145.59 119.325C145.59 110.945 153.363 106.066 162.459 106.066C168.005 106.066 171.256 107.269 173.247 108.293L170.295 115.765C168.909 115.045 165.535 113.661 161.678 113.779C157.34 113.779 155.228 115.765 155.228 117.693C155.228 120.232 158.301 121.675 161.799 123.302C167.279 125.71 170.897 128.966 170.897 134.332C170.897 143.609 162.763 148.133 153.302 148.133C147.154 148.01 142.637 146.443 140.345 144.762L143.599 137.468Z" fill="#E2E8F0"/>
</svg>
