<svg width="256" height="256" viewBox="0 0 256 256" fill="none" xmlns="http://www.w3.org/2000/svg">
<path d="M70.1863 66.9568C70.8242 67.5415 71.4089 68.4451 71.4089 69.3488C71.4089 70.8903 69.6016 72.9633 66.2528 76.3653C52.3262 89.8135 45.3097 106.238 45.3629 126.119C45.416 148.018 52.8045 165.666 67.1565 179.327C70.1331 181.985 71.4089 184.111 71.4089 185.918C71.4089 186.822 70.771 187.779 70.1863 188.629C69.6016 189.267 68.379 189.905 67.4754 189.905C64.1266 189.905 59.5021 185.971 53.4424 178.317C41.6419 163.859 36.3264 147.912 36.0075 126.119C35.7417 104.325 42.5456 89.5478 55.9407 74.2922C60.7247 68.8704 64.7645 66 67.4754 66C68.379 66 69.2827 66.3189 70.1863 66.9568Z" fill="#E2E8F0"/>
<path d="M143.542 131.005C138.28 129.676 159.808 104.268 121.589 73.8633C121.589 73.8633 126.586 89.8098 101.337 125.371C76.0349 160.878 112.553 182.034 112.553 182.034C112.553 182.034 95.4366 172.891 115.37 140.36C118.931 134.46 123.609 129.145 129.403 117.078C129.403 117.078 134.506 124.361 131.848 140.042C127.861 163.802 149.23 156.998 149.549 157.317C157.043 166.088 143.383 181.556 142.532 182.034C141.682 182.513 181.548 158.114 153.216 121.331C151.303 123.244 148.804 132.387 143.542 131.005Z" fill="#E2E8F0"/>
<path d="M185.675 66.93C185.037 67.5679 184.399 68.4715 184.399 69.322C184.399 70.8635 186.207 72.9897 189.555 76.3916C203.535 89.8399 210.552 106.265 210.499 126.092C210.445 148.045 203.057 165.692 188.705 179.3C185.675 182.011 184.453 184.137 184.453 185.945C184.453 186.848 185.09 187.752 185.675 188.655C186.26 189.293 187.482 189.878 188.386 189.878C191.682 189.878 196.359 185.998 202.419 178.343C214.219 163.885 219.535 147.885 219.854 126.145C220.12 104.351 213.316 89.5741 199.921 74.3186C195.137 68.8436 191.097 66.0264 188.386 66.0264C187.482 66.0264 186.526 66.3453 185.675 66.93Z" fill="#E2E8F0"/>
</svg>
