<svg width="255" height="255" viewBox="0 0 255 255" fill="none" xmlns="http://www.w3.org/2000/svg">
<path d="M43 156.335H75.8592V160.984H43V156.335Z" fill="#1F70C1"/>
<path d="M43 147.418H75.8592V152.083H43V147.418Z" fill="#1F70C1"/>
<path d="M52.374 138.518H66.4685V143.183H52.374V138.518Z" fill="#1F70C1"/>
<path d="M52.374 129.617H66.4685V134.282H52.374V129.617Z" fill="#1F70C1"/>
<path d="M52.374 120.717H66.4685V125.382H52.374V120.717Z" fill="#1F70C1"/>
<path d="M52.374 111.801H66.4685V116.466H52.374V111.801Z" fill="#1F70C1"/>
<path d="M75.8592 102.9H43V107.566H75.8592V102.9Z" fill="#1F70C1"/>
<path d="M75.8592 94H43V98.6652H75.8592V94Z" fill="#1F70C1"/>
<path d="M80.5459 152.083H131.082C131.935 150.644 132.572 149.072 132.957 147.418H80.5459V152.083Z" fill="#1F70C1"/>
<path d="M127.148 129.617H89.9365V134.282H131.082C130.01 132.496 128.688 130.924 127.148 129.617Z" fill="#1F70C1"/>
<path d="M89.9365 120.717V125.382H127.148C128.722 124.075 130.044 122.503 131.082 120.717H89.9365Z" fill="#1F70C1"/>
<path d="M131.082 102.9H80.5459V107.566H132.957C132.522 105.911 131.885 104.34 131.082 102.9Z" fill="#1F70C1"/>
<path d="M115.548 94H80.5459V98.6652H127.617C124.47 95.7866 120.201 94 115.548 94Z" fill="#1F70C1"/>
<path d="M104.014 111.801H89.9365V116.466H104.014V111.801Z" fill="#1F70C1"/>
<path d="M118.108 116.466H132.839C133.257 114.977 133.475 113.406 133.475 111.801H118.108V116.466Z" fill="#1F70C1"/>
<path d="M89.9365 138.518H104.014V143.183H89.9365V138.518Z" fill="#1F70C1"/>
<path d="M118.108 138.518V143.183H133.475C133.475 141.578 133.257 140.007 132.839 138.518H118.108Z" fill="#1F70C1"/>
<path d="M80.5459 160.951L115.548 161C120.235 161 124.47 159.214 127.634 156.335H80.5459V160.951Z" fill="#1F70C1"/>
<path d="M136.891 156.335H160.359V160.984H136.891V156.335Z" fill="#1F70C1"/>
<path d="M136.891 147.418H160.359V152.083H136.891V147.418Z" fill="#1F70C1"/>
<path d="M146.265 138.518H160.359V143.183H146.265V138.518Z" fill="#1F70C1"/>
<path d="M146.265 129.617H160.359V134.282H146.265V129.617Z" fill="#1F70C1"/>
<path d="M166.887 102.9H136.891V107.566H168.511L166.887 102.9Z" fill="#1F70C1"/>
<path d="M163.774 94H136.891V98.6652H165.398L163.774 94Z" fill="#1F70C1"/>
<path d="M188.515 156.335H212V160.984H188.515V156.335Z" fill="#1F70C1"/>
<path d="M188.515 147.418H212V152.083H188.515V147.418Z" fill="#1F70C1"/>
<path d="M188.515 138.518H202.609V143.183H188.515V138.518Z" fill="#1F70C1"/>
<path d="M188.515 129.617H202.609V134.282H188.515V129.617Z" fill="#1F70C1"/>
<path d="M188.515 125.382H202.609V120.717H188.515H175.759L174.437 124.489L173.115 120.717H160.359H146.265V125.382H160.359V121.097L161.849 125.382H187.025L188.515 121.097V125.382Z" fill="#1F70C1"/>
<path d="M202.609 111.801H178.873L177.249 116.466H202.609V111.801Z" fill="#1F70C1"/>
<path d="M185.117 94L183.493 98.6652H212V94H185.117Z" fill="#1F70C1"/>
<path d="M174.437 160.951L176.061 156.335H172.813L174.437 160.951Z" fill="#1F70C1"/>
<path d="M171.323 152.083H177.55L179.224 147.418H169.666L171.323 152.083Z" fill="#1F70C1"/>
<path d="M168.159 143.183H180.714L182.371 138.518H166.502L168.159 143.183Z" fill="#1F70C1"/>
<path d="M165.012 134.282H183.878L185.485 129.617H163.389L165.012 134.282Z" fill="#1F70C1"/>
<path d="M146.265 116.466H171.625L170.001 111.801H146.265V116.466Z" fill="#1F70C1"/>
<path d="M180.379 107.566H211.999V102.9H181.986L180.379 107.566Z" fill="#1F70C1"/>
</svg>
